# xmcd CD database file
#
# Track frame offsets:
#	150
#	28927
#	71323
#	94829
#	151243
#	180180
#	197762
#	215239
#	257001
#	291361
#	301455
#
# Disc length: 4234 seconds
#
# Revision: 0
# Processed by: cddbd v1.5PL3 Copyright (c) Steve Scherf et al.
# Submitted via: CDex 1.51
#
DISCID=9c10880b
DTITLE=dhafer youssef ensemble - Zakir Hussain - Making Music
DYEAR=1999
DGENRE=Jazz
TTITLE0=baraca
TTITLE1=el houb el hindi
TTITLE2=am naschmarkt
TTITLE3=Making Music
TTITLE4=Zakir
TTITLE5=Water Girl
TTITLE6=Toni
TTITLE7=Anisa
TTITLE8=Sunjog
TTITLE9=You and Me
TTITLE10=Sabah
EXTD=YEAR: 1999
EXTT0=
EXTT1=
EXTT2=
EXTT3=
EXTT4=
EXTT5=
EXTT6=
EXTT7=
EXTT8=
EXTT9=
EXTT10=
PLAYORDER=
